<svg id="Group_13" data-name="Group 13" xmlns="http://www.w3.org/2000/svg" width="31.491" height="25.591" viewBox="0 0 31.491 25.591">
  <g id="Group_43" data-name="Group 43" transform="translate(0 0)">
    <path id="Path_20" data-name="Path 20" d="M399.251,757.03a12.913,12.913,0,0,1-3.711,1.017,6.47,6.47,0,0,0,2.84-3.574,12.946,12.946,0,0,1-4.1,1.568,6.479,6.479,0,0,0-6.116-1.893,6.377,6.377,0,0,0-4.579,3.824,6.668,6.668,0,0,0-.314,3.961,18.338,18.338,0,0,1-13.316-6.751,6.472,6.472,0,0,0,2,8.626,6.456,6.456,0,0,1-2.926-.808v.081a6.464,6.464,0,0,0,5.183,6.335,6.492,6.492,0,0,1-2.917.11,6.466,6.466,0,0,0,6.035,4.488,13.01,13.01,0,0,1-9.565,2.675,18.284,18.284,0,0,0,9.9,2.9c11.883,0,18.38-9.845,18.38-18.382,0-.28-.007-.559-.018-.836A13.154,13.154,0,0,0,399.251,757.03Z" transform="translate(-367.76 -754)" fill="#562085"/>
  </g>
</svg>
