<svg id="Group_14" data-name="Group 14" xmlns="http://www.w3.org/2000/svg" width="31.491" height="31.491" viewBox="0 0 31.491 31.491">
  <g id="Group_45" data-name="Group 45" transform="translate(0 0)">
    <path id="Path_21" data-name="Path 21" d="M425.354,754H399.587a2.863,2.863,0,0,0-2.863,2.863v25.765a2.863,2.863,0,0,0,2.863,2.863h14.195V772.37h-3.936v-3.936h3.936v-2.305c0-4.367,2.208-6.282,5.975-6.282a22.832,22.832,0,0,1,3.21.186V764.5h-2.693c-1.54-.478-1.244,1.983-1.244,1.983v1.954h4.138l-.562,3.936H419.03v13.122h6.323a2.862,2.862,0,0,0,2.862-2.863V756.863A2.862,2.862,0,0,0,425.354,754Z" transform="translate(-396.724 -754)" fill="#562085"/>
  </g>
</svg>
