<svg id="Group_88" data-name="Group 88" xmlns="http://www.w3.org/2000/svg" width="18.801" height="20.098" viewBox="0 0 18.801 20.098">
  <g id="Group_53" data-name="Group 53" transform="translate(0 0)">
    <path id="Path_25" data-name="Path 25" d="M473.237,773.581h-4.26a1.288,1.288,0,0,1-1.289-1.288v-4.518a1.03,1.03,0,0,0-1.03-1.031h-2.213a1.031,1.031,0,0,0-1.031,1.031v4.518a1.288,1.288,0,0,1-1.288,1.288h-5.115a1.288,1.288,0,0,1-1.289-1.288v-9.818a3.865,3.865,0,0,1,1.494-3.052l7.433-5.778a.772.772,0,0,1,.949,0l7.434,5.778a3.863,3.863,0,0,1,1.492,3.05v9.819A1.288,1.288,0,0,1,473.237,773.581Z" transform="translate(-455.724 -753.482)" fill="#562085"/>
  </g>
</svg>
