<svg xmlns="http://www.w3.org/2000/svg" xmlns:xlink="http://www.w3.org/1999/xlink" width="33.528" height="33.529" viewBox="0 0 33.528 33.529">
  <defs>
    <clipPath id="clip-path">
      <path id="Path_117" data-name="Path 117" d="M455.477,461.165a5.588,5.588,0,1,1,5.587,5.589,5.588,5.588,0,0,1-5.587-5.589m-3.021,0a8.608,8.608,0,1,0,8.608-8.608,8.608,8.608,0,0,0-8.608,8.608M468,452.215a2.012,2.012,0,1,0,2.012-2.011A2.013,2.013,0,0,0,468,452.215m-13.711,22.6a9.262,9.262,0,0,1-3.113-.577A5.551,5.551,0,0,1,448,471.053a9.259,9.259,0,0,1-.577-3.113c-.081-1.767-.1-2.3-.1-6.775s.018-5.006.1-6.775a9.3,9.3,0,0,1,.577-3.113,5.548,5.548,0,0,1,3.182-3.182,9.261,9.261,0,0,1,3.113-.577c1.767-.081,2.3-.1,6.774-.1s5.006.018,6.775.1a9.3,9.3,0,0,1,3.113.577,5.548,5.548,0,0,1,3.182,3.182,9.261,9.261,0,0,1,.577,3.113c.081,1.769.1,2.3.1,6.775s-.016,5.006-.1,6.775a9.3,9.3,0,0,1-.577,3.113,5.551,5.551,0,0,1-3.182,3.181,9.261,9.261,0,0,1-3.113.577c-1.767.081-2.3.1-6.775.1s-5.006-.016-6.774-.1m-.138-30.309a12.3,12.3,0,0,0-4.069.779,8.572,8.572,0,0,0-4.9,4.9,12.3,12.3,0,0,0-.779,4.069c-.083,1.788-.1,2.359-.1,6.912s.019,5.124.1,6.912a12.3,12.3,0,0,0,.779,4.069,8.572,8.572,0,0,0,4.9,4.9,12.3,12.3,0,0,0,4.069.779c1.789.081,2.359.1,6.912.1s5.124-.019,6.912-.1a12.3,12.3,0,0,0,4.069-.779,8.572,8.572,0,0,0,4.9-4.9,12.262,12.262,0,0,0,.779-4.069c.081-1.789.1-2.359.1-6.912s-.019-5.124-.1-6.912a12.3,12.3,0,0,0-.779-4.069,8.575,8.575,0,0,0-4.9-4.9,12.277,12.277,0,0,0-4.069-.779c-1.787-.081-2.359-.1-6.912-.1s-5.124.019-6.913.1" transform="translate(-444.3 -444.4)" fill="#fff"/>
    </clipPath>
    <clipPath id="clip-path-2">
      <path id="Path_115" data-name="Path 115" d="M-5520.6-5520.5h195.174v195.08H-5520.6Z" transform="translate(5520.6 5520.5)" fill="#562085"/>
    </clipPath>
  </defs>
  <g id="Group_104" data-name="Group 104" transform="translate(-897.734 348.806)">
    <g id="Mask_Group_3" data-name="Mask Group 3" transform="translate(897.734 -348.806)" clip-path="url(#clip-path)">
      <g id="Group_97" data-name="Group 97" transform="translate(-80.823 -80.775)" clip-path="url(#clip-path-2)">
        <g id="Group_90" data-name="Group 90" clip-path="url(#clip-path-2)">
          <path id="Path_107" data-name="Path 107" d="M-5520.6-5520.5h195.079v195.08H-5520.6Z" transform="translate(5520.6 5520.5)" fill="#562085"/>
        </g>
      </g>
      <path id="Path_116" data-name="Path 116" d="M11.554,45.4a15.34,15.34,0,0,1-5.161-.956,8.634,8.634,0,0,1-3.2-2.079,8.585,8.585,0,0,1-2.079-3.194,15.34,15.34,0,0,1-.956-5.161C.027,31.084,0,30.2,0,22.784s.03-8.3.161-11.23a15.427,15.427,0,0,1,.956-5.161A8.667,8.667,0,0,1,3.2,3.2a8.579,8.579,0,0,1,3.2-2.079A15.34,15.34,0,0,1,11.552.161C14.483.027,15.363,0,22.781,0s8.3.03,11.23.161a15.427,15.427,0,0,1,5.161.956,8.6,8.6,0,0,1,3.2,2.079,8.623,8.623,0,0,1,2.079,3.2,15.34,15.34,0,0,1,.956,5.161c.134,2.932.161,3.809.161,11.23s-.027,8.3-.161,11.23a15.411,15.411,0,0,1-.956,5.161,9.2,9.2,0,0,1-5.274,5.273,15.34,15.34,0,0,1-5.161.956c-2.929.134-3.809.161-11.23.161s-8.3-.026-11.227-.161" transform="translate(-6.065 -6.018)" fill="#562085"/>
    </g>
  </g>
</svg>
