<svg id="Group_12" data-name="Group 12" xmlns="http://www.w3.org/2000/svg" width="31.491" height="23.38" viewBox="0 0 31.491 23.38">
  <g id="Group_41" data-name="Group 41" transform="translate(0 0)">
    <path id="Path_19" data-name="Path 19" d="M366.336,758.019a4.146,4.146,0,0,0-3.287-3.143,64.922,64.922,0,0,0-11.69-.876,65.885,65.885,0,0,0-11.762.876,4.053,4.053,0,0,0-3.288,3.143,47.919,47.919,0,0,0-.585,7.671,39.686,39.686,0,0,0,.657,7.672,4.16,4.16,0,0,0,3.287,3.143,79.511,79.511,0,0,0,23.529,0,4.061,4.061,0,0,0,3.288-3.143,56.144,56.144,0,0,0,.73-7.672A50.986,50.986,0,0,0,366.336,758.019Zm-18.8,12.786V760.575l8.913,5.115Z" transform="translate(-335.724 -754)" fill="#562085"/>
  </g>
</svg>
